<svg width="16" height="16" viewBox="0 0 16 16" fill="none" xmlns="http://www.w3.org/2000/svg">
<path d="M10.6666 9.33331C10.6666 9.8856 11.1143 10.3333 11.6666 10.3333C12.2189 10.3333 12.6666 9.8856 12.6666 9.33331C12.6666 8.78103 12.2189 8.33331 11.6666 8.33331C11.1143 8.33331 10.6666 8.78103 10.6666 9.33331Z" stroke="white" stroke-width="1.5"/>
<path d="M12.5999 5.33331C12.6437 5.11791 12.6666 4.89496 12.6666 4.66665C12.6666 2.8257 11.1742 1.33331 9.33329 1.33331C7.49234 1.33331 5.99996 2.8257 5.99996 4.66665C5.99996 4.89496 6.02291 5.11791 6.06664 5.33331" stroke="white" stroke-width="1.5"/>
<path d="M4.66665 5.32878H10.6666C12.5523 5.32878 13.4951 5.32878 14.0809 5.91485C14.6666 6.50092 14.6666 7.44419 14.6666 9.33072V10.6647C14.6666 12.5512 14.6666 13.4945 14.0809 14.0806C13.4951 14.6666 12.5523 14.6666 10.6666 14.6666H6.66665C4.15249 14.6666 2.89541 14.6666 2.11436 13.8852C1.33331 13.1038 1.33331 11.8461 1.33331 9.33072V7.99674C1.33331 5.48137 1.33331 4.22368 2.11436 3.44226C2.74309 2.81323 3.68027 2.69055 5.33331 2.66663H6.66665" stroke="white" stroke-width="1.5" stroke-linecap="round"/>
</svg>
